<svg xmlns="http://www.w3.org/2000/svg" width="500" height="410" viewBox="0 0 500 410" role="img"><title>열린 문으로 지나가요</title><desc>새로 열린 길에서 적과 보상을 만납니다.</desc><defs><marker id="tip" markerWidth="6" markerHeight="6" refX="4.8" refY="3" orient="auto"><path d="M0 0L5 3L0 6z" fill="#16805a"/></marker><clipPath id="clip"><rect width="500" height="410" rx="18"/></clipPath></defs><style>text{font-family:"Malgun Gothic","Noto Sans KR",sans-serif}</style><g clip-path="url(#clip)"><rect width="500" height="410" fill="#e9efdf"/><rect x="47" y="-10" width="406" height="440" fill="#7d8f86"/><path d="M70 0V410M430 0V410" stroke="#e7ede0" stroke-width="4"/><path d="M188 0V410M312 0V410" stroke="#e7ede0" stroke-width="3" stroke-dasharray="19 17"/><rect x="195" y="108" width="15" height="44" rx="4" fill="#d9ae57"/><rect x="294" y="108" width="15" height="44" rx="4" fill="#d9ae57"/><path d="M204 115L210 52" stroke="#efb65b" stroke-width="13"/><g transform="translate(130 205) scale(0.95)"><rect x="-30" y="-33" width="60" height="66" rx="8" fill="#dfaf4e" stroke="#fff9e2" stroke-width="4"/><text x="0" y="11" text-anchor="middle" font-size="35" fill="#fff" font-weight="700">1</text></g><g transform="translate(250 229) scale(1)"><ellipse cx="0" cy="30" rx="34" ry="16" fill="#294e49" opacity=".13"/><path d="M-13 24l-18 22 31-10 31 10-18-22" fill="#91b6c1" stroke="#254d59" stroke-width="3"/><ellipse rx="24" ry="39" fill="#9fc2cb" stroke="#254d59" stroke-width="4"/><path d="M-18-1l-27 21 31-6M18-1l27 21-31-6" fill="#9fc2cb" stroke="#254d59" stroke-width="3"/><circle cx="-8" cy="-19" r="3.8" fill="#203f4b"/><circle cx="8" cy="-19" r="3.8" fill="#203f4b"/><ellipse cx="-18" cy="33" rx="13" ry="7" fill="#35aee0" stroke="white" stroke-width="4"/><ellipse cx="18" cy="33" rx="13" ry="7" fill="#35aee0" stroke="white" stroke-width="4"/></g><rect x="230.0" y="48" width="120" height="34" rx="8" fill="#fffef4" stroke="#244b3a" stroke-width="2"/><text x="290" y="73" text-anchor="middle" font-size="20" fill="#244b3a" font-weight="700">열렸어요</text><path d="M250 174L250 105" stroke="#16805a" stroke-width="10" fill="none" marker-end="url(#tip)"/><g transform="translate(358 140) scale(0.7)"><circle r="28" fill="#efc354" stroke="#a87a28" stroke-width="4"/><circle r="20" fill="none" stroke="#ffe7a2" stroke-width="3"/><path d="M0-13v26" stroke="#aa7e2a" stroke-width="6"/></g></g></svg>